<svg
  width="56"
  height="56"
  viewBox="0 0 56 56"
  fill="none"
  xmlns="http://www.w3.org/2000/svg">
  <circle cx="28" cy="28" r="28" fill="#FB5454" />
  <path
    d="M28.5 3C28.5 2.17157 27.8284 1.5 27 1.5C26.1716 1.5 25.5 2.17157 25.5 3H28.5ZM25.9393 54.0607C26.5251 54.6464 27.4749 54.6464 28.0607 54.0607L37.6066 44.5147C38.1924 43.9289 38.1924 42.9792 37.6066 42.3934C37.0208 41.8076 36.0711 41.8076 35.4853 42.3934L27 50.8787L18.5147 42.3934C17.9289 41.8076 16.9792 41.8076 16.3934 42.3934C15.8076 42.9792 15.8076 43.9289 16.3934 44.5147L25.9393 54.0607ZM25.5 3L25.5 53H28.5L28.5 3H25.5Z"
    fill="white" />
  <path
    d="M3 27.5C2.17157 27.5 1.5 28.1716 1.5 29C1.5 29.8284 2.17157 30.5 3 30.5V27.5ZM26.0607 30.0607C26.6464 29.4749 26.6464 28.5251 26.0607 27.9393L16.5147 18.3934C15.9289 17.8076 14.9792 17.8076 14.3934 18.3934C13.8076 18.9792 13.8076 19.9289 14.3934 20.5147L22.8787 29L14.3934 37.4853C13.8076 38.0711 13.8076 39.0208 14.3934 39.6066C14.9792 40.1924 15.9289 40.1924 16.5147 39.6066L26.0607 30.0607ZM3 30.5H25V27.5H3V30.5Z"
    fill="white" />
  <path
    d="M52 22.5C52.8284 22.5 53.5 21.8284 53.5 21C53.5 20.1716 52.8284 19.5 52 19.5V22.5ZM27.9393 19.9393C27.3536 20.5251 27.3536 21.4749 27.9393 22.0607L37.4853 31.6066C38.0711 32.1924 39.0208 32.1924 39.6066 31.6066C40.1924 31.0208 40.1924 30.0711 39.6066 29.4853L31.1213 21L39.6066 12.5147C40.1924 11.9289 40.1924 10.9792 39.6066 10.3934C39.0208 9.80761 38.0711 9.80761 37.4853 10.3934L27.9393 19.9393ZM52 19.5L29 19.5V22.5L52 22.5V19.5Z"
    fill="white" />
</svg>
